<svg width="720" height="200" viewBox="0 0 720 200" fill="none" xmlns="http://www.w3.org/2000/svg">
  <rect width="720" height="200" rx="24" fill="#0B1221"/>
  <path d="M92 140L64 60H80L96 108L112 60H128L100 140H92Z" fill="#8DF0FF"/>
  <path d="M146 140L134 60H150L158 116L188 60H204L210 116L238 60H254L210 140H200L194 84L162 140H146Z" fill="#39D1FF"/>
  <path d="M276 140V60H292V140H276ZM312 140V60H328V124H360V140H312Z" fill="#39D1FF"/>
  <path d="M392 140V60H408V92H436V60H452V140H436V108H408V140H392Z" fill="#39D1FF"/>
  <path d="M484 140V60H540C556 60 568 72 568 88C568 102 560 110 548 112L572 140H552L530 114H500V140H484ZM500 102H536C544 102 548 98 548 92C548 86 544 82 536 82H500V102Z" fill="#8DF0FF"/>
  <path d="M608 140V60H624V124H668V140H608Z" fill="#8DF0FF"/>
  <text x="360" y="180" text-anchor="middle" font-family="'Segoe UI', sans-serif" font-size="32" fill="#8DF0FF" letter-spacing="0.08em">THE WORLD'S DATA FILTER™</text>
</svg>